<svg width="1200" height="630" viewBox="0 0 1200 630" fill="none" xmlns="http://www.w3.org/2000/svg">
  <defs>
    <linearGradient id="bg" x1="0" y1="0" x2="1200" y2="630" gradientUnits="userSpaceOnUse">
      <stop offset="0%" stop-color="#05070a" />
      <stop offset="50%" stop-color="#0a1020" />
      <stop offset="100%" stop-color="#08090c" />
    </linearGradient>
    <radialGradient id="cyanGlow" cx="0" cy="0" r="1" gradientUnits="userSpaceOnUse" gradientTransform="translate(960 170) rotate(135) scale(360 280)">
      <stop stop-color="#22d3ee" stop-opacity="0.32" />
      <stop offset="1" stop-color="#22d3ee" stop-opacity="0" />
    </radialGradient>
    <radialGradient id="violetGlow" cx="0" cy="0" r="1" gradientUnits="userSpaceOnUse" gradientTransform="translate(240 510) rotate(-20) scale(420 300)">
      <stop stop-color="#a78bfa" stop-opacity="0.24" />
      <stop offset="1" stop-color="#a78bfa" stop-opacity="0" />
    </radialGradient>
    <linearGradient id="heroBar" x1="0" y1="0" x2="1200" y2="0" gradientUnits="userSpaceOnUse">
      <stop stop-color="#22d3ee" />
      <stop offset="0.5" stop-color="#a78bfa" />
      <stop offset="1" stop-color="#f472b6" />
    </linearGradient>
  </defs>

  <rect width="1200" height="630" rx="48" fill="url(#bg)" />
  <rect width="1200" height="630" rx="48" fill="url(#cyanGlow)" />
  <rect width="1200" height="630" rx="48" fill="url(#violetGlow)" />

  <g opacity="0.18">
    <circle cx="1020" cy="110" r="146" stroke="#ffffff" stroke-opacity="0.12" stroke-width="1.5" />
    <circle cx="1020" cy="110" r="98" stroke="#ffffff" stroke-opacity="0.08" stroke-width="1" />
    <circle cx="210" cy="512" r="118" stroke="#ffffff" stroke-opacity="0.08" stroke-width="1.5" />
  </g>

  <rect x="72" y="72" width="205" height="42" rx="21" fill="white" fill-opacity="0.06" stroke="white" stroke-opacity="0.12" />
  <circle cx="94" cy="93" r="6" fill="#22d3ee" />
  <text x="112" y="98" fill="#f8fafc" font-family="Inter, ui-sans-serif, system-ui" font-size="18" font-weight="600" letter-spacing="0.12em">SANJIV KUMAR</text>

  <rect x="72" y="160" width="1056" height="2" rx="1" fill="url(#heroBar)" opacity="0.7" />

  <text x="72" y="302" fill="#f8fafc" font-family="Inter, ui-sans-serif, system-ui" font-size="82" font-weight="700" letter-spacing="-0.05em">Sanjiv Kumar Kushwaha</text>
  <text x="72" y="370" fill="#cbd5e1" font-family="Inter, ui-sans-serif, system-ui" font-size="32" font-weight="500">Founder &amp; Product Engineer</text>
  <text x="72" y="420" fill="#94a3b8" font-family="Inter, ui-sans-serif, system-ui" font-size="24" font-weight="400">Crafting premium, performance-driven products with cinematic motion.</text>

  <g transform="translate(72 474)">
    <rect width="178" height="54" rx="27" fill="#ffffff" />
    <text x="33" y="35" fill="#05070a" font-family="Inter, ui-sans-serif, system-ui" font-size="18" font-weight="700">View Work</text>
    <path d="M118 20 L136 27 L118 34" stroke="#05070a" stroke-width="2.2" stroke-linecap="round" stroke-linejoin="round" fill="none" />
    <path d="M128 27 H104" stroke="#05070a" stroke-width="2.2" stroke-linecap="round" />

    <rect x="198" width="178" height="54" rx="27" fill="white" fill-opacity="0.06" stroke="white" stroke-opacity="0.12" />
    <text x="235" y="35" fill="#f8fafc" font-family="Inter, ui-sans-serif, system-ui" font-size="18" font-weight="600">Get in touch</text>
  </g>

  <g transform="translate(860 242)">
    <rect x="0" y="0" width="208" height="278" rx="34" fill="#07070a" fill-opacity="0.82" stroke="white" stroke-opacity="0.12" />
    <rect x="18" y="18" width="172" height="242" rx="26" fill="url(#heroBar)" fill-opacity="0.14" />
    <circle cx="104" cy="104" r="54" fill="#0f172a" fill-opacity="0.95" stroke="white" stroke-opacity="0.14" />
    <circle cx="104" cy="98" r="32" fill="#111827" />
    <path d="M78 138 C91 122, 117 122, 130 138" stroke="#e2e8f0" stroke-opacity="0.75" stroke-width="4" stroke-linecap="round" fill="none" />
    <circle cx="93" cy="97" r="3" fill="#e2e8f0" />
    <circle cx="115" cy="97" r="3" fill="#e2e8f0" />
    <rect x="44" y="176" width="120" height="10" rx="5" fill="#ffffff" fill-opacity="0.18" />
    <rect x="58" y="196" width="92" height="10" rx="5" fill="#ffffff" fill-opacity="0.12" />
    <rect x="74" y="226" width="60" height="30" rx="15" fill="#ffffff" fill-opacity="0.08" stroke="#ffffff" stroke-opacity="0.12" />
  </g>

  <text x="72" y="580" fill="#64748b" font-family="Inter, ui-sans-serif, system-ui" font-size="18" font-weight="500">Founder &amp; Product Engineer | React, Next.js, Flutter, UI Craft</text>
</svg>
